<svg width="18" height="18" viewBox="0 0 18 18" xmlns="http://www.w3.org/2000/svg"><g fill="none" fill-rule="evenodd"><path d="M-1-1h20v20H-1z"></path><g fill-rule="nonzero" fill="#999"><path d="M17.333 9c0 4.602-3.73 8.333-8.333 8.333C4.398 17.333.667 13.603.667 9 .667 4.398 4.397.667 9 .667c4.602 0 8.333 3.73 8.333 8.333zM9.07 5.015c-1.87 0-5.75.068-6.286.474-.53.397-.49 2.193-.49 3.663 0 1.482-.123 2.99.46 3.43.59.445 4.707.57 6.316.57 1.797 0 5.535-.238 6.04-.618.495-.374.505-2.12.505-3.382 0-1.29-.028-3.38-.544-3.7-.542-.338-4.328-.438-6-.438z"></path><path d="M12.333 9c0 1.84-1.492 3.333-3.333 3.333-1.84 0-3.333-1.492-3.333-3.333C5.667 7.16 7.16 5.667 9 5.667c1.84 0 3.333 1.492 3.333 3.333z"></path></g></g></svg>